<svg width="30" height="31" viewBox="0 0 30 31" fill="none" xmlns="http://www.w3.org/2000/svg">
<path d="M15 0.870049C11.4382 0.870196 7.9927 2.13772 5.27995 4.44582C2.5672 6.75392 0.764254 9.95198 0.193703 13.4678C-0.376849 16.9836 0.322229 20.5877 2.16585 23.6352C4.00947 26.6827 6.87733 28.9748 10.2563 30.1013C11.0063 30.2326 11.2875 29.7826 11.2875 29.3888C11.2875 29.0325 11.2688 27.8513 11.2688 26.595C7.5 27.2888 6.525 25.6763 6.225 24.8326C5.89212 24.012 5.36442 23.2848 4.6875 22.7138C4.1625 22.4325 3.4125 21.7388 4.66874 21.7201C5.14842 21.7721 5.60848 21.939 6.00995 22.2067C6.41142 22.4743 6.74245 22.8348 6.975 23.2575C7.18016 23.6261 7.45602 23.9505 7.78679 24.2123C8.11755 24.474 8.49672 24.6679 8.90255 24.7829C9.30839 24.8979 9.73292 24.9316 10.1518 24.8822C10.5707 24.8328 10.9758 24.7012 11.3437 24.495C11.4087 23.7325 11.7485 23.0195 12.3 22.4888C8.9625 22.1138 5.475 20.82 5.475 15.0826C5.45392 13.5918 6.00403 12.1495 7.0125 11.0513C6.55393 9.75567 6.60758 8.33377 7.1625 7.07634C7.1625 7.07634 8.41871 6.68258 11.2875 8.61384C13.7419 7.9388 16.3331 7.9388 18.7875 8.61384C21.6562 6.66384 22.9125 7.07634 22.9125 7.07634C23.4675 8.33375 23.5212 9.75568 23.0625 11.0513C24.074 12.1476 24.6246 13.5912 24.6 15.0826C24.6 20.8388 21.0937 22.1138 17.7563 22.4888C18.1142 22.8517 18.3899 23.2873 18.5646 23.7661C18.7393 24.2449 18.809 24.7557 18.7688 25.2638C18.7688 27.2701 18.75 28.8826 18.75 29.3888C18.75 29.7826 19.0312 30.2513 19.7812 30.1013C23.1542 28.9656 26.0139 26.6682 27.8496 23.6191C29.6854 20.57 30.3778 16.9678 29.8033 13.4554C29.2288 9.94302 27.4248 6.74911 24.7132 4.44381C22.0016 2.13852 18.5591 0.871901 15 0.870049Z" fill="#575757"/>
</svg>
