<svg width="30" height="31" viewBox="0 0 30 31" fill="none" xmlns="http://www.w3.org/2000/svg">
<path d="M27.705 0.499996H2.295C2.00937 0.496029 1.72575 0.548367 1.46035 0.654022C1.19495 0.759676 0.952955 0.916577 0.748196 1.11576C0.543438 1.31495 0.379922 1.55252 0.266988 1.81491C0.154054 2.0773 0.0939127 2.35936 0.0900002 2.645V28.355C0.0939127 28.6406 0.154054 28.9227 0.266988 29.1851C0.379922 29.4475 0.543438 29.685 0.748196 29.8842C0.952955 30.0834 1.19495 30.2403 1.46035 30.346C1.72575 30.4516 2.00937 30.504 2.295 30.5H27.705C27.9906 30.504 28.2742 30.4516 28.5396 30.346C28.8051 30.2403 29.047 30.0834 29.2518 29.8842C29.4566 29.685 29.6201 29.4475 29.733 29.1851C29.8459 28.9227 29.9061 28.6406 29.91 28.355V2.645C29.9061 2.35936 29.8459 2.0773 29.733 1.81491C29.6201 1.55252 29.4566 1.31495 29.2518 1.11576C29.047 0.916577 28.8051 0.759676 28.5396 0.654022C28.2742 0.548367 27.9906 0.496029 27.705 0.499996ZM9.135 25.61H4.635V12.11H9.135V25.61ZM6.885 10.22C6.26439 10.22 5.6692 9.97346 5.23037 9.53463C4.79153 9.09579 4.545 8.5006 4.545 7.88C4.545 7.25939 4.79153 6.6642 5.23037 6.22537C5.6692 5.78653 6.26439 5.54 6.885 5.54C7.21454 5.50262 7.54826 5.53528 7.86431 5.63582C8.18036 5.73636 8.47161 5.90253 8.71898 6.12344C8.96636 6.34435 9.16429 6.61501 9.29981 6.91772C9.43532 7.22042 9.50538 7.54834 9.50538 7.88C9.50538 8.21165 9.43532 8.53957 9.29981 8.84227C9.16429 9.14498 8.96636 9.41565 8.71898 9.63655C8.47161 9.85746 8.18036 10.0236 7.86431 10.1242C7.54826 10.2247 7.21454 10.2574 6.885 10.22ZM25.365 25.61H20.865V18.365C20.865 16.55 20.22 15.365 18.585 15.365C18.079 15.3687 17.5863 15.5274 17.1733 15.8198C16.7602 16.1121 16.4467 16.524 16.275 17C16.1576 17.3526 16.1068 17.7239 16.125 18.095V25.595H11.625C11.625 25.595 11.625 13.325 11.625 12.095H16.125V14C16.5338 13.2907 17.1284 12.7063 17.8447 12.3098C18.561 11.9133 19.3719 11.7198 20.19 11.75C23.19 11.75 25.365 13.685 25.365 17.84V25.61Z" fill="#575757"/>
</svg>
