<?xml version="1.0" standalone="no"?>
<!DOCTYPE svg PUBLIC "-//W3C//DTD SVG 20010904//EN"
 "http://www.w3.org/TR/2001/REC-SVG-20010904/DTD/svg10.dtd">
<svg version="1.0" xmlns="http://www.w3.org/2000/svg"
 width="512.000000pt" height="512.000000pt" viewBox="0 0 512.000000 512.000000"
 preserveAspectRatio="xMidYMid meet">

<g transform="translate(0.000000,512.000000) scale(0.100000,-0.100000)"
fill="#000000" stroke="none">
<path d="M1325 4305 c-666 -399 -1218 -735 -1227 -747 -17 -19 -18 -116 -18
-1725 l0 -1704 25 -24 24 -25 2425 0 2425 0 28 24 28 24 0 1705 c0 1687 0
1705 -20 1727 -17 19 -2322 1408 -2412 1454 -18 9 -40 16 -50 16 -10 0 -562
-326 -1228 -725z m2400 -148 l1150 -692 0 -184 0 -185 -1155 -693 c-635 -381
-1159 -693 -1163 -693 -5 0 -528 312 -1163 692 l-1154 693 0 185 0 185 1153
692 c633 381 1159 692 1167 692 8 0 533 -312 1165 -692z m-3008 -1538 c257
-154 469 -282 471 -284 3 -3 -934 -1814 -943 -1824 -3 -2 -5 534 -5 1192 0
659 2 1197 4 1197 3 0 215 -126 473 -281z m4163 -921 c0 -661 -3 -1199 -6
-1195 -4 3 -219 417 -479 919 l-473 912 471 283 c260 156 475 283 480 283 4 0
7 -541 7 -1202z m-2941 188 c355 -213 603 -356 618 -356 15 0 265 144 624 359
411 247 601 356 606 348 24 -39 1033 -1991 1030 -1993 -2 -2 -1021 -3 -2264
-2 l-2261 3 329 635 c182 349 416 800 520 1003 105 202 194 365 197 363 4 -2
274 -164 601 -360z"/>
</g>
</svg>
