<svg width="34" height="34" viewBox="0 0 34 34" fill="none" xmlns="http://www.w3.org/2000/svg">
    <path d="M17.0001 10.3333C16.558 10.3333 16.1341 10.5089 15.8216 10.8215C15.509 11.134 15.3334 11.558 15.3334 12C15.3334 12.442 15.509 12.8659 15.8216 13.1785C16.1341 13.4911 16.558 13.6667 17.0001 13.6667C17.8841 13.6667 18.732 14.0179 19.3571 14.643C19.9822 15.2681 20.3334 16.1159 20.3334 17C20.3334 17.8841 19.9822 18.7319 19.3571 19.357C18.732 19.9821 17.8841 20.3333 17.0001 20.3333C16.558 20.3333 16.1341 20.5089 15.8216 20.8215C15.509 21.134 15.3334 21.558 15.3334 22C15.3334 22.442 15.509 22.8659 15.8216 23.1785C16.1341 23.4911 16.558 23.6667 17.0001 23.6667C18.7682 23.6667 20.4639 22.9643 21.7141 21.714C22.9643 20.4638 23.6667 18.7681 23.6667 17C23.6667 15.2319 22.9643 13.5362 21.7141 12.286C20.4639 11.0357 18.7682 10.3333 17.0001 10.3333ZM33.1834 15.8167L29.2667 12V6.4C29.2667 5.95797 29.0911 5.53405 28.7786 5.22149C28.466 4.90893 28.0421 4.73333 27.6001 4.73333H22.0834L18.1834 0.816667C18.0285 0.660453 17.8441 0.536462 17.641 0.451848C17.4379 0.367233 17.2201 0.323669 17.0001 0.323669C16.78 0.323669 16.5622 0.367233 16.3591 0.451848C16.156 0.536462 15.9717 0.660453 15.8167 0.816667L12.0001 4.73333H6.40006C5.95803 4.73333 5.53411 4.90893 5.22155 5.22149C4.90899 5.53405 4.73339 5.95797 4.73339 6.4V12L0.816728 15.8167C0.660514 15.9716 0.536523 16.1559 0.451909 16.359C0.367294 16.5621 0.32373 16.78 0.32373 17C0.32373 17.22 0.367294 17.4379 0.451909 17.641C0.536523 17.8441 0.660514 18.0284 0.816728 18.1833L4.73339 22.0833V27.6C4.73339 28.042 4.90899 28.4659 5.22155 28.7785C5.53411 29.0911 5.95803 29.2667 6.40006 29.2667H12.0001L15.9001 33.1833C16.055 33.3395 16.2393 33.4635 16.4424 33.5481C16.6455 33.6328 16.8634 33.6763 17.0834 33.6763C17.3034 33.6763 17.5213 33.6328 17.7244 33.5481C17.9275 33.4635 18.1118 33.3395 18.2667 33.1833L22.1667 29.2667H27.6834C28.1254 29.2667 28.5493 29.0911 28.8619 28.7785C29.1745 28.4659 29.3501 28.042 29.3501 27.6V22.0833L33.2667 18.1833C33.4176 18.023 33.5352 17.8343 33.6128 17.6282C33.6903 17.4221 33.7262 17.2027 33.7185 16.9826C33.7107 16.7626 33.6595 16.5462 33.5676 16.3461C33.4758 16.146 33.3452 15.966 33.1834 15.8167ZM26.4334 20.2167C26.2759 20.371 26.1506 20.5551 26.0648 20.7582C25.979 20.9613 25.9343 21.1795 25.9334 21.4V25.9333H21.4001C21.1796 25.9342 20.9614 25.9789 20.7583 26.0647C20.5552 26.1506 20.3711 26.2759 20.2167 26.4333L17.0001 29.65L13.7834 26.4333C13.629 26.2759 13.445 26.1506 13.2418 26.0647C13.0387 25.9789 12.8206 25.9342 12.6001 25.9333H8.06673V21.4C8.06581 21.1795 8.02115 20.9613 7.93532 20.7582C7.84949 20.5551 7.72421 20.371 7.56673 20.2167L4.35006 17L7.56673 13.7833C7.72421 13.629 7.84949 13.4449 7.93532 13.2418C8.02115 13.0386 8.06581 12.8205 8.06673 12.6V8.06667H12.6001C12.8206 8.06575 13.0387 8.02108 13.2418 7.93526C13.445 7.84943 13.629 7.72415 13.7834 7.56667L17.0001 4.35L20.2167 7.56667C20.3711 7.72415 20.5552 7.84943 20.7583 7.93526C20.9614 8.02108 21.1796 8.06575 21.4001 8.06667H25.9334V12.6C25.9343 12.8205 25.979 13.0386 26.0648 13.2418C26.1506 13.4449 26.2759 13.629 26.4334 13.7833L29.6501 17L26.4334 20.2167Z" fill="#A3ABB2"/>
</svg>
